<svg xmlns:xlink="http://www.w3.org/1999/xlink" data-scroll-rotate="" xmlns="http://www.w3.org/2000/svg" width="144.076"
  height="145.669" viewBox="0 0 144.076 145.669">
  <g id="Group_29" data-name="Group 29" transform="translate(0 145.669)">
    <path id="Path_16" data-name="Path 16" d="M70.254,0h3.569V-145.669H70.254Z" fill="#F16855"></path>
    <g id="Group_21" data-name="Group 21" transform="translate(95.272 -3.782)">
      <path id="Path_17" data-name="Path 17" d="M0,0-49.822-136.885l3.354-1.221L3.354-1.221Z" fill="#F16855"></path>
    </g>
    <g id="Group_22" data-name="Group 22" transform="translate(117.489 -15.893)">
      <path id="Path_18" data-name="Path 18" d="M0,0-93.635-111.59l2.735-2.294L2.735-2.3Z" fill="#F16855"></path>
    </g>
    <g id="Group_23" data-name="Group 23" transform="translate(134.223 -34.872)">
      <path id="Path_19" data-name="Path 19" d="M0,0-126.154-72.835l1.785-3.091L1.785-3.092Z" fill="#F16855"></path>
    </g>
    <g id="Group_24" data-name="Group 24" transform="translate(0 -83.724)">
      <path id="Path_20" data-name="Path 20" d="M0,0,143.456,25.3l.62-3.516L.62-3.516Z" fill="#F16855"></path>
    </g>
    <g id="Group_25" data-name="Group 25" transform="translate(0 -61.945)">
      <path id="Path_21" data-name="Path 21" d="M0,0,.62,3.515,144.076-21.779l-.62-3.516Z" fill="#F16855"></path>
    </g>
    <g id="Group_26" data-name="Group 26" transform="translate(9.854 -34.872)">
      <path id="Path_22" data-name="Path 22" d="M0,0-1.785-3.092,124.369-75.926l1.785,3.091Z" fill="#F16855"></path>
    </g>
    <g id="Group_27" data-name="Group 27" transform="translate(26.588 -15.893)">
      <path id="Path_23" data-name="Path 23" d="M0,0-2.735-2.3,90.9-113.884l2.735,2.294Z" fill="#F16855"></path>
    </g>
    <g id="Group_28" data-name="Group 28" transform="translate(48.805 -3.782)">
      <path id="Path_24" data-name="Path 24" d="M0,0-3.354-1.221,46.468-138.106l3.354,1.221Z" fill="#F16855"></path>
    </g>
  </g>
</svg>